<mxfile host="Electron" modified="2024-01-02T16:12:59.799Z" agent="Mozilla/5.0 (Windows NT 10.0; Win64; x64) AppleWebKit/537.36 (KHTML, like Gecko) draw.io/22.1.16 Chrome/120.0.6099.109 Electron/28.1.0 Safari/537.36" etag="0dNyoCAAUbscdsmtOd_g" version="22.1.16" type="device">
  <diagram name="Page-1" id="JaCYd3HpYhimE_BpjsMB">
    <mxGraphModel dx="1036" dy="655" grid="1" gridSize="10" guides="1" tooltips="1" connect="1" arrows="1" fold="1" page="1" pageScale="1" pageWidth="850" pageHeight="1100" math="0" shadow="0">
      <root>
        <mxCell id="0" />
        <mxCell id="1" parent="0" />
        <mxCell id="MEDhUqct-wsGZ8e2YhT6-3" value="" style="edgeStyle=orthogonalEdgeStyle;rounded=0;orthogonalLoop=1;jettySize=auto;html=1;" edge="1" parent="1" source="MEDhUqct-wsGZ8e2YhT6-1" target="MEDhUqct-wsGZ8e2YhT6-2">
          <mxGeometry relative="1" as="geometry" />
        </mxCell>
        <mxCell id="MEDhUqct-wsGZ8e2YhT6-1" value="&lt;font style=&quot;font-size: 18px;&quot;&gt;Start&lt;/font&gt;" style="ellipse;whiteSpace=wrap;html=1;" vertex="1" parent="1">
          <mxGeometry x="370" y="90" width="150" height="110" as="geometry" />
        </mxCell>
        <mxCell id="MEDhUqct-wsGZ8e2YhT6-5" value="" style="edgeStyle=orthogonalEdgeStyle;rounded=0;orthogonalLoop=1;jettySize=auto;html=1;" edge="1" parent="1" source="MEDhUqct-wsGZ8e2YhT6-2" target="MEDhUqct-wsGZ8e2YhT6-4">
          <mxGeometry relative="1" as="geometry" />
        </mxCell>
        <mxCell id="MEDhUqct-wsGZ8e2YhT6-2" value="&lt;font style=&quot;font-size: 18px;&quot;&gt;input number&lt;/font&gt;" style="shape=parallelogram;perimeter=parallelogramPerimeter;whiteSpace=wrap;html=1;fixedSize=1;" vertex="1" parent="1">
          <mxGeometry x="337.5" y="310" width="215" height="115" as="geometry" />
        </mxCell>
        <mxCell id="MEDhUqct-wsGZ8e2YhT6-7" value="" style="edgeStyle=orthogonalEdgeStyle;rounded=0;orthogonalLoop=1;jettySize=auto;html=1;" edge="1" parent="1" source="MEDhUqct-wsGZ8e2YhT6-4" target="MEDhUqct-wsGZ8e2YhT6-6">
          <mxGeometry relative="1" as="geometry" />
        </mxCell>
        <mxCell id="MEDhUqct-wsGZ8e2YhT6-4" value="&lt;font style=&quot;font-size: 18px;&quot;&gt;multipy = 1&lt;/font&gt;" style="whiteSpace=wrap;html=1;" vertex="1" parent="1">
          <mxGeometry x="332.5" y="520" width="225" height="120" as="geometry" />
        </mxCell>
        <mxCell id="MEDhUqct-wsGZ8e2YhT6-9" value="" style="edgeStyle=orthogonalEdgeStyle;rounded=0;orthogonalLoop=1;jettySize=auto;html=1;" edge="1" parent="1" source="MEDhUqct-wsGZ8e2YhT6-6" target="MEDhUqct-wsGZ8e2YhT6-8">
          <mxGeometry relative="1" as="geometry" />
        </mxCell>
        <mxCell id="MEDhUqct-wsGZ8e2YhT6-17" style="edgeStyle=orthogonalEdgeStyle;rounded=0;orthogonalLoop=1;jettySize=auto;html=1;" edge="1" parent="1" source="MEDhUqct-wsGZ8e2YhT6-6" target="MEDhUqct-wsGZ8e2YhT6-19">
          <mxGeometry relative="1" as="geometry">
            <mxPoint x="420" y="1280" as="targetPoint" />
            <Array as="points">
              <mxPoint x="181" y="870" />
              <mxPoint x="181" y="1280" />
            </Array>
          </mxGeometry>
        </mxCell>
        <mxCell id="MEDhUqct-wsGZ8e2YhT6-6" value="&lt;font style=&quot;font-size: 18px;&quot;&gt;if&lt;br&gt;&amp;nbsp;number != &#39;x&#39;&lt;/font&gt;" style="rhombus;whiteSpace=wrap;html=1;" vertex="1" parent="1">
          <mxGeometry x="308.75" y="750" width="272.5" height="240" as="geometry" />
        </mxCell>
        <mxCell id="MEDhUqct-wsGZ8e2YhT6-11" value="" style="edgeStyle=orthogonalEdgeStyle;rounded=0;orthogonalLoop=1;jettySize=auto;html=1;" edge="1" parent="1" source="MEDhUqct-wsGZ8e2YhT6-8" target="MEDhUqct-wsGZ8e2YhT6-10">
          <mxGeometry relative="1" as="geometry" />
        </mxCell>
        <mxCell id="MEDhUqct-wsGZ8e2YhT6-8" value="&lt;font style=&quot;font-size: 18px;&quot;&gt;multipy = multiply * number&lt;/font&gt;" style="whiteSpace=wrap;html=1;" vertex="1" parent="1">
          <mxGeometry x="760" y="820" width="242.5" height="100" as="geometry" />
        </mxCell>
        <mxCell id="MEDhUqct-wsGZ8e2YhT6-13" style="edgeStyle=orthogonalEdgeStyle;rounded=0;orthogonalLoop=1;jettySize=auto;html=1;exitX=0;exitY=0.5;exitDx=0;exitDy=0;entryX=0.5;entryY=1;entryDx=0;entryDy=0;" edge="1" parent="1" source="MEDhUqct-wsGZ8e2YhT6-10" target="MEDhUqct-wsGZ8e2YhT6-6">
          <mxGeometry relative="1" as="geometry" />
        </mxCell>
        <mxCell id="MEDhUqct-wsGZ8e2YhT6-10" value="&lt;font style=&quot;font-size: 18px;&quot;&gt;input number&lt;/font&gt;" style="shape=parallelogram;perimeter=parallelogramPerimeter;whiteSpace=wrap;html=1;fixedSize=1;" vertex="1" parent="1">
          <mxGeometry x="761.88" y="1020" width="238.75" height="130" as="geometry" />
        </mxCell>
        <mxCell id="MEDhUqct-wsGZ8e2YhT6-12" value="&lt;font style=&quot;font-size: 18px;&quot;&gt;True&lt;/font&gt;" style="text;html=1;align=center;verticalAlign=middle;resizable=0;points=[];autosize=1;strokeColor=none;fillColor=none;" vertex="1" parent="1">
          <mxGeometry x="640" y="843" width="60" height="40" as="geometry" />
        </mxCell>
        <mxCell id="MEDhUqct-wsGZ8e2YhT6-22" value="" style="edgeStyle=orthogonalEdgeStyle;rounded=0;orthogonalLoop=1;jettySize=auto;html=1;" edge="1" parent="1" source="MEDhUqct-wsGZ8e2YhT6-19" target="MEDhUqct-wsGZ8e2YhT6-21">
          <mxGeometry relative="1" as="geometry" />
        </mxCell>
        <mxCell id="MEDhUqct-wsGZ8e2YhT6-19" value="&lt;font style=&quot;font-size: 18px;&quot;&gt;Output multiply&lt;/font&gt;" style="shape=parallelogram;perimeter=parallelogramPerimeter;whiteSpace=wrap;html=1;fixedSize=1;" vertex="1" parent="1">
          <mxGeometry x="311.25" y="1210" width="270" height="120" as="geometry" />
        </mxCell>
        <mxCell id="MEDhUqct-wsGZ8e2YhT6-20" value="&lt;font style=&quot;font-size: 18px;&quot;&gt;False&lt;/font&gt;" style="text;html=1;align=center;verticalAlign=middle;resizable=0;points=[];autosize=1;strokeColor=none;fillColor=none;" vertex="1" parent="1">
          <mxGeometry x="170" y="1065" width="70" height="40" as="geometry" />
        </mxCell>
        <mxCell id="MEDhUqct-wsGZ8e2YhT6-21" value="&lt;font style=&quot;font-size: 18px;&quot;&gt;Stop&lt;/font&gt;" style="ellipse;whiteSpace=wrap;html=1;" vertex="1" parent="1">
          <mxGeometry x="344.38" y="1450" width="203.75" height="130" as="geometry" />
        </mxCell>
      </root>
    </mxGraphModel>
  </diagram>
</mxfile>
